<mxfile host="app.diagrams.net" modified="2023-04-25T16:06:30.847Z" agent="Mozilla/5.0 (Windows NT 10.0; Win64; x64) AppleWebKit/537.36 (KHTML, like Gecko) Chrome/112.0.0.0 Safari/537.36" etag="_fM5v-_q-uYOHxebIVlz" version="21.2.2" type="google">
  <diagram name="PÃ¡gina-1" id="HXfhRm-ENFsZlljyis07">
    <mxGraphModel grid="1" page="1" gridSize="10" guides="1" tooltips="1" connect="1" arrows="1" fold="1" pageScale="1" pageWidth="1000" pageHeight="1100" math="0" shadow="0">
      <root>
        <mxCell id="0" />
        <mxCell id="1" parent="0" />
        <mxCell id="dA8L9CkRoMRP-aSC3h_j-1" value="&lt;font style=&quot;font-size: 20px;&quot;&gt;CC&lt;/font&gt;" style="rounded=0;whiteSpace=wrap;html=1;" vertex="1" parent="1">
          <mxGeometry x="440" y="120" width="120" height="60" as="geometry" />
        </mxCell>
        <mxCell id="dA8L9CkRoMRP-aSC3h_j-7" style="edgeStyle=orthogonalEdgeStyle;rounded=0;orthogonalLoop=1;jettySize=auto;html=1;entryX=0.5;entryY=1;entryDx=0;entryDy=0;" edge="1" parent="1" source="dA8L9CkRoMRP-aSC3h_j-3" target="dA8L9CkRoMRP-aSC3h_j-1">
          <mxGeometry relative="1" as="geometry">
            <Array as="points">
              <mxPoint x="260" y="280" />
              <mxPoint x="500" y="280" />
            </Array>
          </mxGeometry>
        </mxCell>
        <mxCell id="dA8L9CkRoMRP-aSC3h_j-3" value="&lt;font style=&quot;font-size: 20px;&quot;&gt;C0&lt;/font&gt;" style="rounded=1;whiteSpace=wrap;html=1;" vertex="1" parent="1">
          <mxGeometry x="200" y="330" width="120" height="60" as="geometry" />
        </mxCell>
        <mxCell id="dA8L9CkRoMRP-aSC3h_j-9" style="edgeStyle=orthogonalEdgeStyle;rounded=0;orthogonalLoop=1;jettySize=auto;html=1;endArrow=none;endFill=0;" edge="1" parent="1" source="dA8L9CkRoMRP-aSC3h_j-4">
          <mxGeometry relative="1" as="geometry">
            <mxPoint x="500" y="280" as="targetPoint" />
            <Array as="points">
              <mxPoint x="740" y="280" />
            </Array>
          </mxGeometry>
        </mxCell>
        <mxCell id="dA8L9CkRoMRP-aSC3h_j-4" value="&lt;font style=&quot;font-size: 20px;&quot;&gt;C9&lt;br&gt;&lt;/font&gt;" style="rounded=1;whiteSpace=wrap;html=1;" vertex="1" parent="1">
          <mxGeometry x="680" y="330" width="120" height="60" as="geometry" />
        </mxCell>
        <mxCell id="dA8L9CkRoMRP-aSC3h_j-8" style="edgeStyle=orthogonalEdgeStyle;rounded=0;orthogonalLoop=1;jettySize=auto;html=1;endArrow=none;endFill=0;" edge="1" parent="1" source="dA8L9CkRoMRP-aSC3h_j-5">
          <mxGeometry relative="1" as="geometry">
            <mxPoint x="420" y="280" as="targetPoint" />
          </mxGeometry>
        </mxCell>
        <mxCell id="dA8L9CkRoMRP-aSC3h_j-5" value="&lt;font style=&quot;font-size: 20px;&quot;&gt;C1&lt;/font&gt;" style="rounded=1;whiteSpace=wrap;html=1;" vertex="1" parent="1">
          <mxGeometry x="360" y="330" width="120" height="60" as="geometry" />
        </mxCell>
        <mxCell id="dA8L9CkRoMRP-aSC3h_j-6" value="" style="endArrow=none;dashed=1;html=1;dashPattern=1 3;strokeWidth=2;rounded=0;" edge="1" parent="1">
          <mxGeometry width="50" height="50" relative="1" as="geometry">
            <mxPoint x="490" y="360" as="sourcePoint" />
            <mxPoint x="670" y="360" as="targetPoint" />
          </mxGeometry>
        </mxCell>
        <mxCell id="dA8L9CkRoMRP-aSC3h_j-11" style="edgeStyle=orthogonalEdgeStyle;rounded=0;orthogonalLoop=1;jettySize=auto;html=1;entryX=0;entryY=0.5;entryDx=0;entryDy=0;" edge="1" parent="1" source="dA8L9CkRoMRP-aSC3h_j-10" target="dA8L9CkRoMRP-aSC3h_j-1">
          <mxGeometry relative="1" as="geometry">
            <mxPoint x="420" y="150" as="targetPoint" />
          </mxGeometry>
        </mxCell>
        <mxCell id="dA8L9CkRoMRP-aSC3h_j-10" value="" style="shape=umlActor;verticalLabelPosition=bottom;verticalAlign=top;html=1;outlineConnect=0;" vertex="1" parent="1">
          <mxGeometry x="300" y="120" width="30" height="60" as="geometry" />
        </mxCell>
        <mxCell id="dA8L9CkRoMRP-aSC3h_j-15" style="edgeStyle=orthogonalEdgeStyle;rounded=0;orthogonalLoop=1;jettySize=auto;html=1;entryX=0.5;entryY=1;entryDx=0;entryDy=0;" edge="1" parent="1" source="dA8L9CkRoMRP-aSC3h_j-12" target="dA8L9CkRoMRP-aSC3h_j-3">
          <mxGeometry relative="1" as="geometry" />
        </mxCell>
        <mxCell id="dA8L9CkRoMRP-aSC3h_j-12" value="" style="shape=umlActor;verticalLabelPosition=bottom;verticalAlign=top;html=1;outlineConnect=0;" vertex="1" parent="1">
          <mxGeometry x="245" y="420" width="30" height="60" as="geometry" />
        </mxCell>
        <mxCell id="dA8L9CkRoMRP-aSC3h_j-16" style="edgeStyle=orthogonalEdgeStyle;rounded=0;orthogonalLoop=1;jettySize=auto;html=1;" edge="1" parent="1" source="dA8L9CkRoMRP-aSC3h_j-13" target="dA8L9CkRoMRP-aSC3h_j-5">
          <mxGeometry relative="1" as="geometry" />
        </mxCell>
        <mxCell id="dA8L9CkRoMRP-aSC3h_j-13" value="" style="shape=umlActor;verticalLabelPosition=bottom;verticalAlign=top;html=1;outlineConnect=0;" vertex="1" parent="1">
          <mxGeometry x="405" y="420" width="30" height="60" as="geometry" />
        </mxCell>
        <mxCell id="dA8L9CkRoMRP-aSC3h_j-17" style="edgeStyle=orthogonalEdgeStyle;rounded=0;orthogonalLoop=1;jettySize=auto;html=1;entryX=0.5;entryY=1;entryDx=0;entryDy=0;" edge="1" parent="1" source="dA8L9CkRoMRP-aSC3h_j-14" target="dA8L9CkRoMRP-aSC3h_j-4">
          <mxGeometry relative="1" as="geometry" />
        </mxCell>
        <mxCell id="dA8L9CkRoMRP-aSC3h_j-14" value="" style="shape=umlActor;verticalLabelPosition=bottom;verticalAlign=top;html=1;outlineConnect=0;" vertex="1" parent="1">
          <mxGeometry x="725" y="420" width="30" height="60" as="geometry" />
        </mxCell>
      </root>
    </mxGraphModel>
  </diagram>
</mxfile>
